ISO-10303-21;
HEADER;
FILE_DESCRIPTION(('ViewDefinition[DesignTransferView]'),'2;1');
FILE_NAME('/dev/null','2026-09-02T22:42:42-03:00',(''),(''),'IfcOpenShell 0.8.5','IfcOpenShell 0.8.5','Nobody');
FILE_SCHEMA(('IFC4'));
ENDSEC;
DATA;
#1=IFCPROJECT('2pNiQXXrr5fwiudejEIIiJ',$,'Gemeo Digital - Sorting by Height (LPS/UFRJ)',$,$,$,$,(#10),#5);
#2=IFCSIUNIT(*,.LENGTHUNIT.,$,.METRE.);
#3=IFCSIUNIT(*,.AREAUNIT.,$,.SQUARE_METRE.);
#4=IFCSIUNIT(*,.VOLUMEUNIT.,$,.CUBIC_METRE.);
#5=IFCUNITASSIGNMENT((#4,#2,#3));
#6=IFCCARTESIANPOINT((0.,0.,0.));
#7=IFCDIRECTION((0.,0.,1.));
#8=IFCDIRECTION((1.,0.,0.));
#9=IFCAXIS2PLACEMENT3D(#6,#7,#8);
#10=IFCGEOMETRICREPRESENTATIONCONTEXT($,'Model',3,1.0000000000000001E-05,#9,$);
#11=IFCGEOMETRICREPRESENTATIONSUBCONTEXT('Body','Model',*,*,*,*,#10,$,.MODEL_VIEW.,$);
#12=IFCSITE('0J4gjzKsbFWB50GbZuGgRu',$,'LPS - UFRJ',$,$,$,$,$,$,$,$,$,$,$);
#13=IFCBUILDING('232bqAlPTB6RBnigAgaw9L',$,'Celula de Triagem',$,$,$,$,$,$,$,$,$);
#14=IFCBUILDINGSTOREY('3EKuGucr1CfvvBpasolbUo',$,'Terreo',$,$,$,$,$,$,$);
#15=IFCRELAGGREGATES('1rYyHRMRHEiRBK1kqpNh_L',$,$,$,#1,(#12));
#16=IFCRELAGGREGATES('3Mp$XwjW1FePDtF87NvM7h',$,$,$,#12,(#13));
#17=IFCRELAGGREGATES('1_WxQo_Y95wfr8eHRxYJcM',$,$,$,#13,(#14));
#18=IFCTRANSPORTELEMENT('2g1$BtHwn7sAY2llngy$dR',$,'Esteira de Entrada',$,'Conveyor Segment',#71,#66,$,.USERDEFINED.);
#19=IFCRELCONTAINEDINSPATIALSTRUCTURE('12m8WNfpv3ixXjUs6YFpYk',$,$,$,(#118,#18,#254,#95,#201,#72),#14);
#20=IFCCARTESIANPOINT((0.030000000000000002,0.030000000000000002,0.));
#21=IFCDIRECTION((0.,0.,1.));
#22=IFCDIRECTION((1.,0.,0.));
#23=IFCAXIS2PLACEMENT3D(#20,#21,#22);
#24=IFCBLOCK(#23,0.040000000000000001,0.040000000000000001,0.45000000000000001);
#25=IFCCARTESIANPOINT((0.030000000000000002,0.23000000000000001,0.));
#26=IFCDIRECTION((0.,0.,1.));
#27=IFCDIRECTION((1.,0.,0.));
#28=IFCAXIS2PLACEMENT3D(#25,#26,#27);
#29=IFCBLOCK(#28,0.040000000000000001,0.040000000000000001,0.45000000000000001);
#30=IFCCARTESIANPOINT((1.9299999999999999,0.030000000000000002,0.));
#31=IFCDIRECTION((0.,0.,1.));
#32=IFCDIRECTION((1.,0.,0.));
#33=IFCAXIS2PLACEMENT3D(#30,#31,#32);
#34=IFCBLOCK(#33,0.040000000000000001,0.040000000000000001,0.45000000000000001);
#35=IFCCARTESIANPOINT((1.9299999999999999,0.23000000000000001,0.));
#36=IFCDIRECTION((0.,0.,1.));
#37=IFCDIRECTION((1.,0.,0.));
#38=IFCAXIS2PLACEMENT3D(#35,#36,#37);
#39=IFCBLOCK(#38,0.040000000000000001,0.040000000000000001,0.45000000000000001);
#40=IFCCARTESIANPOINT((0.,0.,0.45000000000000001));
#41=IFCDIRECTION((0.,0.,1.));
#42=IFCDIRECTION((1.,0.,0.));
#43=IFCAXIS2PLACEMENT3D(#40,#41,#42);
#44=IFCBLOCK(#43,2.,0.29999999999999999,0.050000000000000003);
#45=IFCCARTESIANPOINT((0.,0.));
#46=IFCAXIS2PLACEMENT2D(#45,$);
#47=IFCCIRCLE(#46,0.044999999999999998);
#48=IFCARBITRARYCLOSEDPROFILEDEF(.AREA.,$,#47);
#49=IFCCARTESIANPOINT((0.044999999999999998,0.,0.52249999999999996));
#50=IFCDIRECTION((0.,1.,0.));
#51=IFCDIRECTION((1.,0.,0.));
#52=IFCAXIS2PLACEMENT3D(#49,#50,#51);
#53=IFCDIRECTION((0.,0.,1.));
#54=IFCEXTRUDEDAREASOLID(#48,#52,#53,0.29999999999999999);
#55=IFCCARTESIANPOINT((0.,0.));
#56=IFCAXIS2PLACEMENT2D(#55,$);
#57=IFCCIRCLE(#56,0.044999999999999998);
#58=IFCARBITRARYCLOSEDPROFILEDEF(.AREA.,$,#57);
#59=IFCCARTESIANPOINT((1.9550000000000001,0.,0.52249999999999996));
#60=IFCDIRECTION((0.,1.,0.));
#61=IFCDIRECTION((1.,0.,0.));
#62=IFCAXIS2PLACEMENT3D(#59,#60,#61);
#63=IFCDIRECTION((0.,0.,1.));
#64=IFCEXTRUDEDAREASOLID(#58,#62,#63,0.29999999999999999);
#65=IFCSHAPEREPRESENTATION(#11,'Body',$,(#24,#29,#34,#39,#44,#54,#64));
#66=IFCPRODUCTDEFINITIONSHAPE($,$,(#65));
#67=IFCCARTESIANPOINT((0.,0.,0.));
#68=IFCDIRECTION((0.,0.,1.));
#69=IFCDIRECTION((1.,0.,0.));
#70=IFCAXIS2PLACEMENT3D(#67,#68,#69);
#71=IFCLOCALPLACEMENT($,#70);
#72=IFCSENSOR('32QIT47FT5ZAsUaAw$xJ_G',$,'Sensor de Presenca',$,'Optical Presence Sensor',#94,#89,$,.USERDEFINED.);
#73=IFCCARTESIANPOINT((0.,0.,0.));
#74=IFCDIRECTION((0.,0.,1.));
#75=IFCDIRECTION((1.,0.,0.));
#76=IFCAXIS2PLACEMENT3D(#73,#74,#75);
#77=IFCBLOCK(#76,0.050000000000000003,0.10000000000000001,0.050000000000000003);
#78=IFCCARTESIANPOINT((0.,0.));
#79=IFCAXIS2PLACEMENT2D(#78,$);
#80=IFCCIRCLE(#79,0.017499999999999998);
#81=IFCARBITRARYCLOSEDPROFILEDEF(.AREA.,$,#80);
#82=IFCCARTESIANPOINT((0.025000000000000001,0.10000000000000001,0.025000000000000001));
#83=IFCDIRECTION((0.,1.,0.));
#84=IFCDIRECTION((1.,0.,0.));
#85=IFCAXIS2PLACEMENT3D(#82,#83,#84);
#86=IFCDIRECTION((0.,0.,1.));
#87=IFCEXTRUDEDAREASOLID(#81,#85,#86,0.02);
#88=IFCSHAPEREPRESENTATION(#11,'Body',$,(#77,#87));
#89=IFCPRODUCTDEFINITIONSHAPE($,$,(#88));
#90=IFCCARTESIANPOINT((0.20000000000000001,0.10000000000000001,0.29999999999999999));
#91=IFCDIRECTION((0.,0.,1.));
#92=IFCDIRECTION((1.,0.,0.));
#93=IFCAXIS2PLACEMENT3D(#90,#91,#92);
#94=IFCLOCALPLACEMENT($,#93);
#95=IFCSENSOR('3uIQPgp4P4PP9KqNzwerN_',$,'Sensor de Altura',$,'Optical Height Sensor',#117,#112,$,.USERDEFINED.);
#96=IFCCARTESIANPOINT((0.,0.,0.));
#97=IFCDIRECTION((0.,0.,1.));
#98=IFCDIRECTION((1.,0.,0.));
#99=IFCAXIS2PLACEMENT3D(#96,#97,#98);
#100=IFCBLOCK(#99,0.050000000000000003,0.050000000000000003,0.050000000000000003);
#101=IFCCARTESIANPOINT((0.,0.35000000000000003,0.));
#102=IFCDIRECTION((0.,0.,1.));
#103=IFCDIRECTION((1.,0.,0.));
#104=IFCAXIS2PLACEMENT3D(#101,#102,#103);
#105=IFCBLOCK(#104,0.050000000000000003,0.050000000000000003,0.050000000000000003);
#106=IFCCARTESIANPOINT((0.,0.014999999999999999,0.014999999999999999));
#107=IFCDIRECTION((0.,0.,1.));
#108=IFCDIRECTION((1.,0.,0.));
#109=IFCAXIS2PLACEMENT3D(#106,#107,#108);
#110=IFCBLOCK(#109,0.050000000000000003,0.37,0.020000000000000004);
#111=IFCSHAPEREPRESENTATION(#11,'Body','CSG',(#100,#105,#110));
#112=IFCPRODUCTDEFINITIONSHAPE($,$,(#111));
#113=IFCCARTESIANPOINT((1.,-0.050000000000000003,0.59999999999999998));
#114=IFCDIRECTION((0.,0.,1.));
#115=IFCDIRECTION((1.,0.,0.));
#116=IFCAXIS2PLACEMENT3D(#113,#114,#115);
#117=IFCLOCALPLACEMENT($,#116);
#118=IFCTRANSPORTELEMENT('3DfTFnHFH2wP4Bj7GKqpFL',$,'Mesa de Transferencia',$,'Chain Transfer Table',#200,#195,$,.USERDEFINED.);
#119=IFCCARTESIANPOINT((0.030000000000000002,0.030000000000000002,0.));
#120=IFCDIRECTION((0.,0.,1.));
#121=IFCDIRECTION((1.,0.,0.));
#122=IFCAXIS2PLACEMENT3D(#119,#120,#121);
#123=IFCBLOCK(#122,0.040000000000000001,0.040000000000000001,0.45000000000000001);
#124=IFCCARTESIANPOINT((0.030000000000000002,1.23,0.));
#125=IFCDIRECTION((0.,0.,1.));
#126=IFCDIRECTION((1.,0.,0.));
#127=IFCAXIS2PLACEMENT3D(#124,#125,#126);
#128=IFCBLOCK(#127,0.040000000000000001,0.040000000000000001,0.45000000000000001);
#129=IFCCARTESIANPOINT((0.52999999999999992,0.030000000000000002,0.));
#130=IFCDIRECTION((0.,0.,1.));
#131=IFCDIRECTION((1.,0.,0.));
#132=IFCAXIS2PLACEMENT3D(#129,#130,#131);
#133=IFCBLOCK(#132,0.040000000000000001,0.040000000000000001,0.45000000000000001);
#134=IFCCARTESIANPOINT((0.52999999999999992,1.23,0.));
#135=IFCDIRECTION((0.,0.,1.));
#136=IFCDIRECTION((1.,0.,0.));
#137=IFCAXIS2PLACEMENT3D(#134,#135,#136);
#138=IFCBLOCK(#137,0.040000000000000001,0.040000000000000001,0.45000000000000001);
#139=IFCCARTESIANPOINT((0.,0.,0.45000000000000001));
#140=IFCDIRECTION((0.,0.,1.));
#141=IFCDIRECTION((1.,0.,0.));
#142=IFCAXIS2PLACEMENT3D(#139,#140,#141);
#143=IFCBLOCK(#142,0.59999999999999998,1.3,0.050000000000000003);
#144=IFCCARTESIANPOINT((0.,0.));
#145=IFCAXIS2PLACEMENT2D(#144,$);
#146=IFCCIRCLE(#145,0.027);
#147=IFCARBITRARYCLOSEDPROFILEDEF(.AREA.,$,#146);
#148=IFCCARTESIANPOINT((0.089999999999999997,0.,0.51349999999999996));
#149=IFCDIRECTION((0.,1.,0.));
#150=IFCDIRECTION((1.,0.,0.));
#151=IFCAXIS2PLACEMENT3D(#148,#149,#150);
#152=IFCDIRECTION((0.,0.,1.));
#153=IFCEXTRUDEDAREASOLID(#147,#151,#152,1.3);
#154=IFCCARTESIANPOINT((0.,0.));
#155=IFCAXIS2PLACEMENT2D(#154,$);
#156=IFCCIRCLE(#155,0.027);
#157=IFCARBITRARYCLOSEDPROFILEDEF(.AREA.,$,#156);
#158=IFCCARTESIANPOINT((0.19500000000000001,0.,0.51349999999999996));
#159=IFCDIRECTION((0.,1.,0.));
#160=IFCDIRECTION((1.,0.,0.));
#161=IFCAXIS2PLACEMENT3D(#158,#159,#160);
#162=IFCDIRECTION((0.,0.,1.));
#163=IFCEXTRUDEDAREASOLID(#157,#161,#162,1.3);
#164=IFCCARTESIANPOINT((0.,0.));
#165=IFCAXIS2PLACEMENT2D(#164,$);
#166=IFCCIRCLE(#165,0.027);
#167=IFCARBITRARYCLOSEDPROFILEDEF(.AREA.,$,#166);
#168=IFCCARTESIANPOINT((0.30000000000000004,0.,0.51349999999999996));
#169=IFCDIRECTION((0.,1.,0.));
#170=IFCDIRECTION((1.,0.,0.));
#171=IFCAXIS2PLACEMENT3D(#168,#169,#170);
#172=IFCDIRECTION((0.,0.,1.));
#173=IFCEXTRUDEDAREASOLID(#167,#171,#172,1.3);
#174=IFCCARTESIANPOINT((0.,0.));
#175=IFCAXIS2PLACEMENT2D(#174,$);
#176=IFCCIRCLE(#175,0.027);
#177=IFCARBITRARYCLOSEDPROFILEDEF(.AREA.,$,#176);
#178=IFCCARTESIANPOINT((0.40500000000000003,0.,0.51349999999999996));
#179=IFCDIRECTION((0.,1.,0.));
#180=IFCDIRECTION((1.,0.,0.));
#181=IFCAXIS2PLACEMENT3D(#178,#179,#180);
#182=IFCDIRECTION((0.,0.,1.));
#183=IFCEXTRUDEDAREASOLID(#177,#181,#182,1.3);
#184=IFCCARTESIANPOINT((0.,0.));
#185=IFCAXIS2PLACEMENT2D(#184,$);
#186=IFCCIRCLE(#185,0.027);
#187=IFCARBITRARYCLOSEDPROFILEDEF(.AREA.,$,#186);
#188=IFCCARTESIANPOINT((0.51000000000000001,0.,0.51349999999999996));
#189=IFCDIRECTION((0.,1.,0.));
#190=IFCDIRECTION((1.,0.,0.));
#191=IFCAXIS2PLACEMENT3D(#188,#189,#190);
#192=IFCDIRECTION((0.,0.,1.));
#193=IFCEXTRUDEDAREASOLID(#187,#191,#192,1.3);
#194=IFCSHAPEREPRESENTATION(#11,'Body',$,(#123,#128,#133,#138,#143,#153,#163,#173,#183,#193));
#195=IFCPRODUCTDEFINITIONSHAPE($,$,(#194));
#196=IFCCARTESIANPOINT((2.,-0.5,0.));
#197=IFCDIRECTION((0.,0.,1.));
#198=IFCDIRECTION((1.,0.,0.));
#199=IFCAXIS2PLACEMENT3D(#196,#197,#198);
#200=IFCLOCALPLACEMENT($,#199);
#201=IFCTRANSPORTELEMENT('3fpfANZQX5nu0Iyh3RXRRH',$,'Esteira de Saida - Baixa',$,'Conveyor Segment',#253,#248,$,.USERDEFINED.);
#202=IFCCARTESIANPOINT((0.030000000000000002,0.030000000000000002,0.));
#203=IFCDIRECTION((0.,0.,1.));
#204=IFCDIRECTION((1.,0.,0.));
#205=IFCAXIS2PLACEMENT3D(#202,#203,#204);
#206=IFCBLOCK(#205,0.040000000000000001,0.040000000000000001,0.45000000000000001);
#207=IFCCARTESIANPOINT((0.030000000000000002,0.23000000000000001,0.));
#208=IFCDIRECTION((0.,0.,1.));
#209=IFCDIRECTION((1.,0.,0.));
#210=IFCAXIS2PLACEMENT3D(#207,#208,#209);
#211=IFCBLOCK(#210,0.040000000000000001,0.040000000000000001,0.45000000000000001);
#212=IFCCARTESIANPOINT((1.4299999999999999,0.030000000000000002,0.));
#213=IFCDIRECTION((0.,0.,1.));
#214=IFCDIRECTION((1.,0.,0.));
#215=IFCAXIS2PLACEMENT3D(#212,#213,#214);
#216=IFCBLOCK(#215,0.040000000000000001,0.040000000000000001,0.45000000000000001);
#217=IFCCARTESIANPOINT((1.4299999999999999,0.23000000000000001,0.));
#218=IFCDIRECTION((0.,0.,1.));
#219=IFCDIRECTION((1.,0.,0.));
#220=IFCAXIS2PLACEMENT3D(#217,#218,#219);
#221=IFCBLOCK(#220,0.040000000000000001,0.040000000000000001,0.45000000000000001);
#222=IFCCARTESIANPOINT((0.,0.,0.45000000000000001));
#223=IFCDIRECTION((0.,0.,1.));
#224=IFCDIRECTION((1.,0.,0.));
#225=IFCAXIS2PLACEMENT3D(#222,#223,#224);
#226=IFCBLOCK(#225,1.5,0.29999999999999999,0.050000000000000003);
#227=IFCCARTESIANPOINT((0.,0.));
#228=IFCAXIS2PLACEMENT2D(#227,$);
#229=IFCCIRCLE(#228,0.044999999999999998);
#230=IFCARBITRARYCLOSEDPROFILEDEF(.AREA.,$,#229);
#231=IFCCARTESIANPOINT((0.044999999999999998,0.,0.52249999999999996));
#232=IFCDIRECTION((0.,1.,0.));
#233=IFCDIRECTION((1.,0.,0.));
#234=IFCAXIS2PLACEMENT3D(#231,#232,#233);
#235=IFCDIRECTION((0.,0.,1.));
#236=IFCEXTRUDEDAREASOLID(#230,#234,#235,0.29999999999999999);
#237=IFCCARTESIANPOINT((0.,0.));
#238=IFCAXIS2PLACEMENT2D(#237,$);
#239=IFCCIRCLE(#238,0.044999999999999998);
#240=IFCARBITRARYCLOSEDPROFILEDEF(.AREA.,$,#239);
#241=IFCCARTESIANPOINT((1.4550000000000001,0.,0.52249999999999996));
#242=IFCDIRECTION((0.,1.,0.));
#243=IFCDIRECTION((1.,0.,0.));
#244=IFCAXIS2PLACEMENT3D(#241,#242,#243);
#245=IFCDIRECTION((0.,0.,1.));
#246=IFCEXTRUDEDAREASOLID(#240,#244,#245,0.29999999999999999);
#247=IFCSHAPEREPRESENTATION(#11,'Body',$,(#206,#211,#216,#221,#226,#236,#246));
#248=IFCPRODUCTDEFINITIONSHAPE($,$,(#247));
#249=IFCCARTESIANPOINT((2.6000000000000001,-1.5,0.));
#250=IFCDIRECTION((0.,0.,1.));
#251=IFCDIRECTION((1.,0.,0.));
#252=IFCAXIS2PLACEMENT3D(#249,#250,#251);
#253=IFCLOCALPLACEMENT($,#252);
#254=IFCTRANSPORTELEMENT('0ORhECPhb3weE62xYtqZMC',$,'Esteira de Saida - Alta',$,'Conveyor Segment',#306,#301,$,.USERDEFINED.);
#255=IFCCARTESIANPOINT((0.030000000000000002,0.030000000000000002,0.));
#256=IFCDIRECTION((0.,0.,1.));
#257=IFCDIRECTION((1.,0.,0.));
#258=IFCAXIS2PLACEMENT3D(#255,#256,#257);
#259=IFCBLOCK(#258,0.040000000000000001,0.040000000000000001,0.45000000000000001);
#260=IFCCARTESIANPOINT((0.030000000000000002,0.23000000000000001,0.));
#261=IFCDIRECTION((0.,0.,1.));
#262=IFCDIRECTION((1.,0.,0.));
#263=IFCAXIS2PLACEMENT3D(#260,#261,#262);
#264=IFCBLOCK(#263,0.040000000000000001,0.040000000000000001,0.45000000000000001);
#265=IFCCARTESIANPOINT((1.4299999999999999,0.030000000000000002,0.));
#266=IFCDIRECTION((0.,0.,1.));
#267=IFCDIRECTION((1.,0.,0.));
#268=IFCAXIS2PLACEMENT3D(#265,#266,#267);
#269=IFCBLOCK(#268,0.040000000000000001,0.040000000000000001,0.45000000000000001);
#270=IFCCARTESIANPOINT((1.4299999999999999,0.23000000000000001,0.));
#271=IFCDIRECTION((0.,0.,1.));
#272=IFCDIRECTION((1.,0.,0.));
#273=IFCAXIS2PLACEMENT3D(#270,#271,#272);
#274=IFCBLOCK(#273,0.040000000000000001,0.040000000000000001,0.45000000000000001);
#275=IFCCARTESIANPOINT((0.,0.,0.45000000000000001));
#276=IFCDIRECTION((0.,0.,1.));
#277=IFCDIRECTION((1.,0.,0.));
#278=IFCAXIS2PLACEMENT3D(#275,#276,#277);
#279=IFCBLOCK(#278,1.5,0.29999999999999999,0.050000000000000003);
#280=IFCCARTESIANPOINT((0.,0.));
#281=IFCAXIS2PLACEMENT2D(#280,$);
#282=IFCCIRCLE(#281,0.044999999999999998);
#283=IFCARBITRARYCLOSEDPROFILEDEF(.AREA.,$,#282);
#284=IFCCARTESIANPOINT((0.044999999999999998,0.,0.52249999999999996));
#285=IFCDIRECTION((0.,1.,0.));
#286=IFCDIRECTION((1.,0.,0.));
#287=IFCAXIS2PLACEMENT3D(#284,#285,#286);
#288=IFCDIRECTION((0.,0.,1.));
#289=IFCEXTRUDEDAREASOLID(#283,#287,#288,0.29999999999999999);
#290=IFCCARTESIANPOINT((0.,0.));
#291=IFCAXIS2PLACEMENT2D(#290,$);
#292=IFCCIRCLE(#291,0.044999999999999998);
#293=IFCARBITRARYCLOSEDPROFILEDEF(.AREA.,$,#292);
#294=IFCCARTESIANPOINT((1.4550000000000001,0.,0.52249999999999996));
#295=IFCDIRECTION((0.,1.,0.));
#296=IFCDIRECTION((1.,0.,0.));
#297=IFCAXIS2PLACEMENT3D(#294,#295,#296);
#298=IFCDIRECTION((0.,0.,1.));
#299=IFCEXTRUDEDAREASOLID(#293,#297,#298,0.29999999999999999);
#300=IFCSHAPEREPRESENTATION(#11,'Body',$,(#259,#264,#269,#274,#279,#289,#299));
#301=IFCPRODUCTDEFINITIONSHAPE($,$,(#300));
#302=IFCCARTESIANPOINT((2.6000000000000001,1.,0.));
#303=IFCDIRECTION((0.,0.,1.));
#304=IFCDIRECTION((1.,0.,0.));
#305=IFCAXIS2PLACEMENT3D(#302,#303,#304);
#306=IFCLOCALPLACEMENT($,#305);
ENDSEC;
END-ISO-10303-21;
